<?xml version="1.0" encoding="UTF-8"?><svg id="Layer_1" xmlns="http://www.w3.org/2000/svg" xmlns:xlink="http://www.w3.org/1999/xlink" viewBox="0 0 1024 1024"><defs><style>.cls-1{fill:#ffb2a3;}.cls-2{fill:#ff4f4f;}.cls-3{fill:#ffafed;}.cls-4{fill:#423f3d;}.cls-5{clip-path:url(#clippath);}.cls-6{fill:none;}</style><clipPath id="clippath"><path class="cls-6" d="M232.26,183.71h63.55l197.48,342.05c8.32,14.4,29.1,14.4,37.42,0l186.21-322.53c6.97-12.08,19.86-19.52,33.81-19.52h80.05V840.29h-63.55c-21.56,0-39.04-17.48-39.04-39.04v-115.2c0-21.56-17.48-39.04-39.04-39.04h-125.86l-111.59,193.28h-49.39c-23.64,0-38.41-25.59-26.58-46.06l85.41-147.79-131.02-225.87c-9.44-16.27-34.32-9.57-34.32,9.23v410.49h-63.55c-21.56,0-39.04-17.48-39.04-39.04V222.75c0-21.56,17.48-39.04,39.04-39.04Z"/></clipPath></defs><rect class="cls-4" x="0" y="0" width="1024" height="1024" rx="189.94" ry="189.94"/><g class="cls-5"><polyline class="cls-1" points="830.78 183.71 563.3 647.01 461.14 646.44 337.31 486.63 312.74 856.69 182.99 856.69 163.79 151.89 299.69 151.89 482.41 382.99 691.62 123.87 863.98 138.84"/><polygon class="cls-2" points="563.3 647.01 461.14 646.44 322.72 852.08 479.34 852.08 733.46 713.69 728.19 361.4 563.3 647.01"/><polygon class="cls-3" points="830.78 183.71 727.2 361.4 727.2 840.29 830.78 840.29 861.74 171.86 830.78 183.71"/></g></svg>